<?xml version="1.0" encoding="utf-8"?>
<!-- Generator: Adobe Illustrator 21.1.0, SVG Export Plug-In . SVG Version: 6.00 Build 0)  -->
<svg version="1.1" id="Layer_1" xmlns="http://www.w3.org/2000/svg" xmlns:xlink="http://www.w3.org/1999/xlink" x="0px" y="0px"
	 viewBox="0 0 390 346" style="enable-background:new 0 0 390 346;" xml:space="preserve">
<style type="text/css">
	.st0{fill:#A4CE4E;}
	.st1{fill:#333435;}
	.st2{fill:#FFFFFF;}
</style>
<title>CommunicationIcon</title>
<path class="st0" d="M92,244.5c-11.9-11.8-27.8-33.2-34.9-68.2c-0.2-1.1-1-2.1-2-2.7C22.6,155.3,4,128.3,4,99.4
	C4,46.8,65.5,4,141.2,4s137.2,42.8,137.2,95.4s-61.5,95.4-137.2,95.4c-16.2,0-32.4-2-48.2-6.1c-2.1-0.6-4.3,0.7-4.9,2.9
	c-0.1,0.2-0.1,0.5-0.1,0.7C86.9,208.7,87,228.7,92,244.5z"/>
<path class="st1" d="M141.2,8c36.1,0,69.9,9.8,95.2,27.7c24.5,17.2,38,39.9,38,63.7s-13.5,46.5-38,63.7
	c-25.3,17.8-59.1,27.6-95.2,27.6c-15.9,0-31.8-2-47.2-5.9c-4.3-1.1-8.6,1.4-9.8,5.7c-0.1,0.5-0.2,1-0.2,1.5
	c-0.8,11.8-1,25.5,0.9,38.4c-9.2-12.2-18.8-29.9-23.9-54.9c-0.5-2.3-1.9-4.2-3.9-5.4C25.9,152.5,8,126.8,8,99.4
	c0-23.9,13.5-46.5,38-63.7C71.3,17.9,105.1,8,141.2,8 M141.2,0C63.2,0,0,44.5,0,99.4c0,31.5,20.8,59.5,53.2,77.7
	c12.7,62,51.7,82.7,51.7,82.7c-14-14.5-14.3-46.7-12.9-67.2c16.1,4.2,32.6,6.2,49.2,6.2c78,0,141.2-44.5,141.2-99.4S219.1,0,141.2,0
	z"/>
<path class="st2" d="M298,330.8c5-15.8,5.2-35.9,4-52.3c-0.2-2.2-2.1-3.9-4.3-3.7c-0.2,0-0.5,0.1-0.7,0.1
	c-15.7,4.1-31.9,6.1-48.2,6.1c-75.6,0-137.2-42.8-137.2-95.4s61.5-95.4,137.2-95.4S386,133,386,185.6c0,28.9-18.6,55.9-51.1,74.2
	c-1,0.6-1.8,1.5-2,2.7C325.7,297.6,309.8,319.1,298,330.8z"/>
<path class="st1" d="M248.8,94.3c36.1,0,69.9,9.8,95.2,27.6c24.5,17.2,38,39.9,38,63.7c0,27.4-17.9,53.2-49.1,70.7
	c-2,1.1-3.5,3.1-3.9,5.4c-5.2,25.5-15.2,43.4-23.9,54.9c1.8-12.8,1.7-26.5,0.8-38.3c-0.3-4.4-4.1-7.7-8.5-7.4c-0.5,0-1,0.1-1.5,0.2
	c-15.4,4-31.2,6-47.2,6c-36.1,0-69.9-9.8-95.2-27.6c-24.5-17.2-38-39.9-38-63.7s13.5-46.5,38-63.7C179,104.1,212.8,94.3,248.8,94.3
	 M248.9,86.3c-78,0-141.2,44.5-141.2,99.4S170.9,285,248.8,285c16.6,0,33.1-2.1,49.2-6.2c1.4,20.5,1.1,52.7-12.9,67.2
	c0,0,39-20.6,51.7-82.7c32.4-18.2,53.2-46.2,53.2-77.7C390,130.7,326.8,86.3,248.9,86.3L248.9,86.3z"/>
<path class="st2" d="M191.5,206.2c-10.8,0-19.5-8.7-19.5-19.5s8.7-19.5,19.5-19.5s19.5,8.7,19.5,19.5l0,0
	C211,197.4,202.3,206.2,191.5,206.2z"/>
<path class="st1" d="M191.5,171.2c8.6,0,15.5,6.9,15.5,15.5s-6.9,15.5-15.5,15.5s-15.5-6.9-15.5-15.5l0,0
	C176.1,178.1,183,171.2,191.5,171.2 M191.5,163.2c-13,0-23.5,10.5-23.5,23.5s10.5,23.5,23.5,23.5s23.5-10.5,23.5-23.5l0,0
	C215,173.7,204.5,163.2,191.5,163.2z"/>
<path class="st2" d="M248.7,206.2c-10.8,0-19.5-8.7-19.5-19.5s8.7-19.5,19.5-19.5s19.5,8.7,19.5,19.5l0,0
	C268.2,197.4,259.5,206.2,248.7,206.2z"/>
<path class="st1" d="M248.7,171.2c8.6,0,15.5,6.9,15.5,15.5s-6.9,15.5-15.5,15.5s-15.5-6.9-15.5-15.5l0,0
	C233.2,178.1,240.2,171.2,248.7,171.2 M248.7,163.2c-13,0-23.5,10.5-23.5,23.5s10.5,23.5,23.5,23.5s23.5-10.5,23.5-23.5l0,0
	C272.2,173.7,261.7,163.2,248.7,163.2z"/>
<path class="st2" d="M306.6,206.2c-10.8,0-19.5-8.7-19.5-19.5s8.7-19.5,19.5-19.5s19.5,8.7,19.5,19.5l0,0
	C326.1,197.4,317.4,206.2,306.6,206.2z"/>
<path class="st1" d="M306.6,171.2c8.6,0,15.5,6.9,15.5,15.5s-6.9,15.5-15.5,15.5s-15.5-6.9-15.5-15.5l0,0
	C291.1,178.1,298.1,171.2,306.6,171.2 M306.6,163.2c-13,0-23.5,10.5-23.5,23.5s10.5,23.5,23.5,23.5s23.5-10.5,23.5-23.5l0,0
	C330.1,173.7,319.6,163.2,306.6,163.2z"/>
</svg>
