<?xml version="1.0" encoding="utf-8"?>
<!-- Generator: Adobe Illustrator 21.1.0, SVG Export Plug-In . SVG Version: 6.00 Build 0)  -->
<svg version="1.1" id="Layer_1" xmlns="http://www.w3.org/2000/svg" xmlns:xlink="http://www.w3.org/1999/xlink" x="0px" y="0px"
	 viewBox="0 0 398 353.8" style="enable-background:new 0 0 398 353.8;" xml:space="preserve">
<style type="text/css">
	.st0{fill:#333435;}
	.st1{fill:#A4CE4E;}
</style>
<title>DataIcon</title>
<g>
	<path class="st0" d="M84.2,242c-1.2,0-2.3-0.5-3.1-1.5L0.9,143.3c-0.6-0.7-0.9-1.6-0.9-2.5V4c0-2.2,1.8-4,4-4h128
		c1.2,0,2.4,0.5,3.1,1.5l59,73.3c1.5,1.6,1.3,4.2-0.3,5.6c-1.6,1.5-4.2,1.3-5.6-0.3c-0.1-0.1-0.2-0.2-0.3-0.3L130.1,8H8v131.3
		l79.3,96.2c1.4,1.7,1.2,4.2-0.5,5.6C86,241.7,85.1,242,84.2,242L84.2,242z"/>
	<path class="st0" d="M394,353.8H265.9c-1.2,0-2.4-0.5-3.1-1.5l-59-73.4c-1.3-1.8-0.9-4.3,0.9-5.6c1.7-1.2,3.9-0.9,5.3,0.6
		l57.8,71.9H390V214.5l-79.3-96.2c-1.4-1.7-1.2-4.2,0.4-5.6c1.7-1.4,4.2-1.2,5.6,0.4c0,0,0.1,0.1,0.1,0.1l80.2,97.3
		c0.6,0.7,0.9,1.6,0.9,2.5v136.8C398,352,396.2,353.8,394,353.8z"/>
	<path class="st0" d="M296,242c-1.2,0-2.4-0.6-3.2-1.5l-46-59.6H153c-1.2,0-2.3-0.5-3.1-1.5l-49.8-61.5c-1.5-1.6-1.5-4.1,0.1-5.7
		c1.6-1.5,4.1-1.5,5.7,0.1c0.2,0.2,0.3,0.3,0.4,0.5l48.6,60h93.8c1.2,0,2.4,0.6,3.2,1.6l47.2,61.1c1.4,1.7,1,4.3-0.7,5.6
		C297.7,241.7,296.9,242,296,242L296,242z"/>
	<path class="st1" d="M90,133.3c-20.8,0-37.6-16.9-37.6-37.6S69.2,58,90,58c20.8,0,37.6,16.9,37.6,37.6
		C127.6,116.4,110.8,133.3,90,133.3z"/>
	<path class="st0" d="M90,62c18.6,0,33.6,15.1,33.6,33.6c0,18.6-15.1,33.6-33.6,33.6c-18.6,0-33.6-15.1-33.6-33.6
		C56.4,77.1,71.5,62,90,62 M90,54c-23,0-41.6,18.6-41.6,41.6S67,137.3,90,137.3c23,0,41.6-18.6,41.6-41.6S113,54,90,54L90,54z"/>
	<path class="st1" d="M199,133.3c-20.8,0-37.6-16.9-37.6-37.6c0-20.8,16.9-37.6,37.6-37.6c20.8,0,37.6,16.9,37.6,37.6
		C236.6,116.4,219.8,133.3,199,133.3z"/>
	<path class="st0" d="M199,62c18.6,0,33.6,15.1,33.6,33.6c0,18.6-15.1,33.6-33.6,33.6c-18.6,0-33.6-15.1-33.6-33.6
		C165.4,77.1,180.5,62,199,62 M199,54c-23,0-41.6,18.6-41.6,41.6c0,23,18.6,41.6,41.6,41.6c23,0,41.6-18.6,41.6-41.6S222,54,199,54
		L199,54z"/>
	<path class="st1" d="M307.3,133.3c-20.8,0-37.6-16.9-37.6-37.6c0-20.8,16.9-37.6,37.6-37.6c20.8,0,37.6,16.9,37.6,37.6
		C344.9,116.4,328.1,133.3,307.3,133.3z"/>
	<path class="st0" d="M307.3,62c18.6,0,33.6,15.1,33.6,33.6c0,18.6-15.1,33.6-33.6,33.6c-18.6,0-33.6-15.1-33.6-33.6
		C273.7,77.1,288.7,62,307.3,62 M307.3,54c-23,0-41.6,18.6-41.6,41.6c0,23,18.6,41.6,41.6,41.6c23,0,41.6-18.6,41.6-41.6
		S330.3,54,307.3,54L307.3,54z"/>
	<path class="st1" d="M307.3,298.1c-20.8,0-37.6-16.9-37.6-37.6c0-20.8,16.9-37.6,37.6-37.6c20.8,0,37.6,16.9,37.6,37.6
		C344.9,281.2,328.1,298.1,307.3,298.1z"/>
	<path class="st0" d="M307.3,226.8c18.6,0,33.6,15.1,33.6,33.6c0,18.6-15.1,33.6-33.6,33.6c-18.6,0-33.6-15.1-33.6-33.6
		C273.7,241.9,288.7,226.8,307.3,226.8 M307.3,218.8c-23,0-41.6,18.6-41.6,41.6c0,23,18.6,41.6,41.6,41.6c23,0,41.6-18.6,41.6-41.6
		S330.3,218.8,307.3,218.8L307.3,218.8z"/>
	<path class="st1" d="M199,298.1c-20.8,0-37.6-16.9-37.6-37.6c0-20.8,16.9-37.6,37.6-37.6c20.8,0,37.6,16.9,37.6,37.6
		C236.6,281.2,219.8,298.1,199,298.1z"/>
	<path class="st0" d="M199,226.8c18.6,0,33.6,15.1,33.6,33.6c0,18.6-15.1,33.6-33.6,33.6c-18.6,0-33.6-15.1-33.6-33.6
		C165.4,241.9,180.5,226.8,199,226.8 M199,218.8c-23,0-41.6,18.6-41.6,41.6c0,23,18.6,41.6,41.6,41.6c23,0,41.6-18.6,41.6-41.6
		S222,218.8,199,218.8L199,218.8z"/>
	<path class="st1" d="M90,298.1c-20.8,0-37.6-16.9-37.6-37.6s16.9-37.6,37.6-37.6c20.8,0,37.6,16.9,37.6,37.6
		C127.6,281.2,110.8,298.1,90,298.1z"/>
	<path class="st0" d="M90,226.8c18.6,0,33.6,15.1,33.6,33.6c0,18.6-15.1,33.6-33.6,33.6c-18.6,0-33.6-15.1-33.6-33.6
		C56.4,241.9,71.5,226.8,90,226.8 M90,218.8c-23,0-41.6,18.6-41.6,41.6S67,302.1,90,302.1c23,0,41.6-18.6,41.6-41.6
		S113,218.8,90,218.8L90,218.8z"/>
</g>
</svg>
