<svg id="Layer_1" data-name="Layer 1" xmlns="http://www.w3.org/2000/svg" viewBox="0 0 90.97 86.04"><defs><style>.cls-1{fill:#57990f;}.cls-2{fill:gray;}.cls-3,.cls-4{fill:#9c3;}.cls-4{fill-rule:evenodd;}</style></defs><title>EQT Logo Icon</title><polygon class="cls-1" points="34.33 86.04 0 66.21 0 26.61 9.48 32.04 9.48 55.3 29.72 43.62 34.33 46.26 34.33 51.87 14.19 63.5 34.33 75.12 34.33 86.04"/><polygon class="cls-2" points="38.23 39.48 33.51 36.78 33.51 13.64 13.38 25.26 3.9 19.83 38.23 0 72.56 19.83 63.08 25.26 42.95 13.64 42.95 36.78 38.23 39.48"/><polygon class="cls-3" points="76.45 26.61 76.45 60.79 90.97 69.18 90.97 74.78 86.37 77.41 71.71 68.95 42.12 86.04 42.12 75.12 66.98 60.78 66.98 32.04 76.45 26.61"/><polygon class="cls-4" points="57.53 49.88 59.89 51.24 62.25 52.61 62.25 55.33 62.25 58.06 59.89 59.42 57.53 60.78 55.17 59.42 52.81 58.06 52.81 55.33 52.81 52.61 55.17 51.24 57.53 49.88"/></svg>