<svg id="Layer_1" data-name="Layer 1" xmlns="http://www.w3.org/2000/svg" viewBox="0 0 468.22 86.04"><defs><style>.cls-1,.cls-2{fill:#fff;}.cls-2{fill-rule:evenodd;}</style></defs><title>EQT Logo White</title><polygon class="cls-1" points="34.33 86.04 0 66.21 0 26.61 9.48 32.03 9.48 55.3 29.72 43.62 34.33 46.26 34.33 51.87 14.19 63.5 34.33 75.12 34.33 86.04"/><polygon class="cls-1" points="38.23 39.48 33.51 36.78 33.51 13.64 13.38 25.26 3.9 19.83 38.23 0 72.56 19.83 63.08 25.26 42.95 13.64 42.95 36.78 38.23 39.48"/><polygon class="cls-1" points="76.45 26.61 76.45 60.79 90.97 69.18 90.97 74.78 86.37 77.42 71.71 68.95 42.12 86.04 42.12 75.12 66.97 60.78 66.97 32.03 76.45 26.61"/><polygon class="cls-2" points="57.53 49.88 59.89 51.24 62.25 52.61 62.25 55.33 62.25 58.06 59.89 59.42 57.53 60.78 55.17 59.42 52.81 58.06 52.81 55.33 52.81 52.61 55.17 51.24 57.53 49.88"/><path class="cls-1" d="M612.35,823h-7.81V796.72h11.86l9.39,16.43,9.54-16.43H647V823h-7.78V804.28L628.37,823h-5.25l-10.78-18.75Zm-47.42-26.31h8v15.6c0,1.78.4,3,1.21,3.58s2.57.9,5.27.9H584c2.26,0,3.77-.31,4.53-1s1.15-1.81,1.15-3.52v-15.6h8v18.1q0,4.65-2.5,6.59t-8.65,1.95h-9q-7.23,0-9.94-1.86t-2.71-6.67ZM557.73,823h-8V796.72h8Zm-25.8-26.31c4.17,0,7,.62,8.52,1.85s2.26,3.49,2.26,6.77a10.08,10.08,0,0,1-1,5.07,5.11,5.11,0,0,1-3.37,2.22,5.7,5.7,0,0,1,3.13,1.75,5,5,0,0,1,1,3.26V823h-8v-4a2.61,2.61,0,0,0-.72-2.14,5,5,0,0,0-2.89-.58h-12V823h-8.06V796.72Zm-.3,6.56H518.86v6.42h12.77a2.86,2.86,0,0,0,2.26-.75,4.26,4.26,0,0,0,.65-2.71,3.18,3.18,0,0,0-.69-2.27A3,3,0,0,0,531.63,803.28ZM496,823H471V796.72h23.7q4.41,0,6.59,1.82a6.79,6.79,0,0,1,2.18,5.53,5.84,5.84,0,0,1-.95,3.45,6.08,6.08,0,0,1-2.95,2.12,5.45,5.45,0,0,1,3.65,1.91,7.14,7.14,0,0,1,1.14,4.36c0,2.49-.67,4.29-2,5.42S498.92,823,496,823ZM493.18,807a2,2,0,0,0,1.53-.55,2.24,2.24,0,0,0,.53-1.62,2.18,2.18,0,0,0-.57-1.57,2,2,0,0,0-1.5-.6H479.06V807Zm.72,10.1a2.13,2.13,0,0,0,1.64-.63,2.57,2.57,0,0,0,.58-1.79,2.37,2.37,0,0,0-.6-1.69,2.18,2.18,0,0,0-1.62-.63H479.06v4.74Zm-30.06,6h-8V796.72h8Zm-30.59-6.37h17.51V823H425.21V796.72h8ZM417.45,823h-8V796.72h8Zm-47.94-26.31h8v15.6c0,1.78.4,3,1.21,3.58s2.56.9,5.27.9h4.55c2.26,0,3.77-.31,4.53-1s1.14-1.81,1.14-3.52v-15.6h8v18.1q0,4.65-2.5,6.59t-8.65,1.95h-9q-7.22,0-9.94-1.86t-2.71-6.67Zm-26.64,20.06H348q4.26,0,5.66-1.07c.93-.71,1.39-2,1.39-4V808c0-1.93-.46-3.26-1.39-4S350.81,803,348,803h-5.14c-2.9,0-4.8.37-5.7,1.08s-1.35,2.08-1.35,4.09v3.67c0,1.89.48,3.19,1.42,3.9S340,816.78,342.86,816.78Zm20,.48,4.08,4.08-5.51,5.51-4-4-.53.11a39.38,39.38,0,0,1-6.73.42h-9.42a39.28,39.28,0,0,1-6.75-.42,8.4,8.4,0,0,1-3.48-1.42,6.37,6.37,0,0,1-2.19-3,14.45,14.45,0,0,1-.67-4.86v-7.17a16.35,16.35,0,0,1,.67-5.23,6.31,6.31,0,0,1,2.19-3.06,8.61,8.61,0,0,1,3.53-1.41,37.9,37.9,0,0,1,6.66-.43h9.45a38.56,38.56,0,0,1,6.71.43,8.4,8.4,0,0,1,3.52,1.41,6.31,6.31,0,0,1,2.15,3,15,15,0,0,1,.68,4.93v7.33A18,18,0,0,1,362.83,817.25Zm-41.15-14.13H301v4h19.52v5.53H301v4h21V823H292.93V796.72h28.75Z" transform="translate(-178.8 -769.78)"/><path class="cls-1" d="M642.54,838.81a16.23,16.23,0,0,1,1.73.08,6.44,6.44,0,0,1,1.22.25,2.57,2.57,0,0,1,.79.41,1.85,1.85,0,0,1,.45.56,2,2,0,0,1,.21.7,6.34,6.34,0,0,1,0,.84,4.24,4.24,0,0,1-.08.84,2.1,2.1,0,0,1-.29.72,2.15,2.15,0,0,1-.56.58,3.32,3.32,0,0,1-.9.43,7.38,7.38,0,0,1-1.31.27,15.85,15.85,0,0,1-1.79.09h-1.64c-.62,0-1.15,0-1.61-.07a6.73,6.73,0,0,1-1.19-.22,3,3,0,0,1-.83-.36,1.84,1.84,0,0,1-.79-1.2,4.42,4.42,0,0,1-.08-.84h1.23a2.06,2.06,0,0,0,.17.92,1.07,1.07,0,0,0,.55.5,3.2,3.2,0,0,0,1,.21c.42,0,.93,0,1.55,0h1.64a12.84,12.84,0,0,0,1.78-.1,3.48,3.48,0,0,0,1.13-.33,1.29,1.29,0,0,0,.6-.59,2,2,0,0,0,.17-.88,2.69,2.69,0,0,0-.12-.87,1,1,0,0,0-.47-.55,2.54,2.54,0,0,0-1-.29,12.68,12.68,0,0,0-1.66-.09h-1.69c-.75,0-1.39,0-1.93-.08a8.12,8.12,0,0,1-1.35-.24,2.79,2.79,0,0,1-.87-.39,1.64,1.64,0,0,1-.5-.54,1.92,1.92,0,0,1-.22-.67,5.93,5.93,0,0,1,0-.79,3.9,3.9,0,0,1,.08-.83,1.92,1.92,0,0,1,.29-.7,2.15,2.15,0,0,1,.6-.55,3.71,3.71,0,0,1,1-.41,8.56,8.56,0,0,1,1.42-.24,19,19,0,0,1,2-.09h1.23c.62,0,1.16,0,1.61.07a6.86,6.86,0,0,1,1.19.21,3.13,3.13,0,0,1,.83.36,1.69,1.69,0,0,1,.52.51,1.92,1.92,0,0,1,.27.67,4.43,4.43,0,0,1,.08.84h-1.23a2,2,0,0,0-.17-.9,1.05,1.05,0,0,0-.55-.49,3.11,3.11,0,0,0-1-.21c-.42,0-.93,0-1.55,0h-1.23a19,19,0,0,0-2,.09,4.32,4.32,0,0,0-1.25.29,1.22,1.22,0,0,0-.64.55,1.83,1.83,0,0,0-.18.86,3.16,3.16,0,0,0,0,.57,1,1,0,0,0,.18.43,1,1,0,0,0,.39.32,2.76,2.76,0,0,0,.66.21,7.86,7.86,0,0,0,1,.12c.4,0,.87,0,1.41,0ZM606,844.34v-9.83h9.83v1h-8.6v3.28h8.19v1h-8.19v3.48h8.6v1Zm-22.54-9.83h1.23v9.83H583.5Zm-22.13,3.07a3.59,3.59,0,0,0-.17-1.21,1.3,1.3,0,0,0-.55-.68,2.43,2.43,0,0,0-1-.29,15,15,0,0,0-1.55-.06H554.8q-.82,0-1.38,0a3.38,3.38,0,0,0-.92.19,1.24,1.24,0,0,0-.56.42,1.79,1.79,0,0,0-.29.73,6.71,6.71,0,0,0-.11,1.12c0,.44,0,1,0,1.58s0,1.14,0,1.58a6.43,6.43,0,0,0,.11,1.12,1.89,1.89,0,0,0,.28.73,1.26,1.26,0,0,0,.56.42,3.17,3.17,0,0,0,.92.2c.37,0,.83,0,1.38,0h3.29c.48,0,.89,0,1.24,0a4.44,4.44,0,0,0,.88-.14,1.61,1.61,0,0,0,.59-.28,1.24,1.24,0,0,0,.35-.45,2.19,2.19,0,0,0,.17-.65,8.2,8.2,0,0,0,0-.89v-.62h-4.92v-1h6.16v1.64a7.74,7.74,0,0,1-.08,1.11,3.05,3.05,0,0,1-.27.88,2.19,2.19,0,0,1-.52.67,2.65,2.65,0,0,1-.83.47,5.55,5.55,0,0,1-1.19.27,12.64,12.64,0,0,1-1.62.09H554.8a11.26,11.26,0,0,1-1.9-.14,4.18,4.18,0,0,1-1.27-.42,2.12,2.12,0,0,1-.77-.71,2.93,2.93,0,0,1-.4-1,7.34,7.34,0,0,1-.15-1.29c0-.48,0-1,0-1.58s0-1.11,0-1.59a7.38,7.38,0,0,1,.15-1.29,2.92,2.92,0,0,1,.4-1,2.13,2.13,0,0,1,.77-.7,4,4,0,0,1,1.27-.42,11.49,11.49,0,0,1,1.9-.14h3.29a12.19,12.19,0,0,1,1.61.09,5.63,5.63,0,0,1,1.19.26,2.79,2.79,0,0,1,.83.44,2.05,2.05,0,0,1,.53.63,2.77,2.77,0,0,1,.27.82,6.64,6.64,0,0,1,.08,1Zm-36,5.94c.54,0,1,0,1.37,0a3.18,3.18,0,0,0,.92-.2,1.26,1.26,0,0,0,.56-.42,1.93,1.93,0,0,0,.29-.73,6.71,6.71,0,0,0,.11-1.12c0-.44,0-1,0-1.58s0-1.14,0-1.58a6.69,6.69,0,0,0-.11-1.12,1.92,1.92,0,0,0-.29-.73,1.24,1.24,0,0,0-.56-.42,3.3,3.3,0,0,0-.92-.19q-.56,0-1.38,0h-3.7q-.82,0-1.38,0a3.4,3.4,0,0,0-.93.19,1.24,1.24,0,0,0-.56.42,1.79,1.79,0,0,0-.29.73,6.62,6.62,0,0,0-.1,1.12q0,.66,0,1.58c0,.61,0,1.14,0,1.58a6.61,6.61,0,0,0,.11,1.12,1.88,1.88,0,0,0,.28.73,1.26,1.26,0,0,0,.56.42,3.19,3.19,0,0,0,.93.2c.37,0,.83,0,1.38,0Zm0-9.21a11.49,11.49,0,0,1,1.9.14,4,4,0,0,1,1.27.42,2.09,2.09,0,0,1,.77.7,3,3,0,0,1,.4,1,7.54,7.54,0,0,1,.15,1.29c0,.48,0,1,0,1.59s0,1.11,0,1.58a7.49,7.49,0,0,1-.15,1.29,3,3,0,0,1-.4,1,2.08,2.08,0,0,1-.77.71,4.18,4.18,0,0,1-1.27.42,11.26,11.26,0,0,1-1.9.14h-3.7a11.25,11.25,0,0,1-1.9-.14,4.19,4.19,0,0,1-1.27-.42,2.11,2.11,0,0,1-.77-.71,2.91,2.91,0,0,1-.4-1,7.44,7.44,0,0,1-.14-1.29c0-.48,0-1,0-1.58s0-1.11,0-1.59a7.48,7.48,0,0,1,.14-1.29,2.91,2.91,0,0,1,.4-1,2.12,2.12,0,0,1,.77-.7,4,4,0,0,1,1.27-.42,11.48,11.48,0,0,1,1.9-.14Zm-37.28,10v-9.83h1.23v8.8H497v1Zm-25.4-.82c.54,0,1,0,1.37,0a3.18,3.18,0,0,0,.93-.2,1.27,1.27,0,0,0,.56-.42,1.93,1.93,0,0,0,.29-.73,6.92,6.92,0,0,0,.11-1.12c0-.44,0-1,0-1.58s0-1.14,0-1.58a6.9,6.9,0,0,0-.11-1.12,1.92,1.92,0,0,0-.29-.73,1.24,1.24,0,0,0-.56-.42,3.29,3.29,0,0,0-.92-.19q-.56,0-1.37,0h-3.7c-.55,0-1,0-1.38,0a3.38,3.38,0,0,0-.92.19,1.23,1.23,0,0,0-.56.42,1.83,1.83,0,0,0-.29.73,6.74,6.74,0,0,0-.1,1.12q0,.66,0,1.58c0,.61,0,1.14,0,1.58a6.3,6.3,0,0,0,.11,1.12,1.85,1.85,0,0,0,.28.73,1.25,1.25,0,0,0,.56.42,3.17,3.17,0,0,0,.92.2c.38,0,.83,0,1.38,0Zm0-9.21a11.46,11.46,0,0,1,1.9.14,4,4,0,0,1,1.27.42,2.1,2.1,0,0,1,.77.7,3,3,0,0,1,.39,1,7.46,7.46,0,0,1,.15,1.29c0,.48,0,1,0,1.59s0,1.11,0,1.58a7.42,7.42,0,0,1-.15,1.29,3.05,3.05,0,0,1-.39,1,2.09,2.09,0,0,1-.77.71,4.13,4.13,0,0,1-1.27.42,11.23,11.23,0,0,1-1.9.14h-3.7a11.24,11.24,0,0,1-1.9-.14,4.18,4.18,0,0,1-1.27-.42,2.12,2.12,0,0,1-.77-.71,2.93,2.93,0,0,1-.4-1,7.53,7.53,0,0,1-.15-1.29q0-.72,0-1.58c0-.58,0-1.11,0-1.59a7.58,7.58,0,0,1,.15-1.29,2.93,2.93,0,0,1,.4-1,2.13,2.13,0,0,1,.77-.7,4,4,0,0,1,1.27-.42,11.46,11.46,0,0,1,1.9-.14Zm-40.26,10h-1.23v-9.83h2.16l9,8.6v-8.6h1.23v9.83h-1.64l-9.53-8.8Zm-23.77-9.83h1.23v9.83h-1.23v-4.51h-9v4.51h-1.23v-9.83h1.23v4.3h9Zm-32.37,3.07a3.51,3.51,0,0,0-.16-1.21,1.28,1.28,0,0,0-.55-.68,2.43,2.43,0,0,0-1-.29,14.94,14.94,0,0,0-1.55-.06h-2.87c-.55,0-1,0-1.38,0a3.4,3.4,0,0,0-.92.19,1.23,1.23,0,0,0-.56.42,1.82,1.82,0,0,0-.29.73,6.92,6.92,0,0,0-.1,1.12q0,.66,0,1.58c0,.61,0,1.14,0,1.58a6.37,6.37,0,0,0,.11,1.12,1.85,1.85,0,0,0,.28.73,1.26,1.26,0,0,0,.56.42,3.18,3.18,0,0,0,.92.2c.38,0,.83,0,1.38,0H363c.48,0,.89,0,1.23,0a4.37,4.37,0,0,0,.88-.14,1.63,1.63,0,0,0,.59-.28,1.19,1.19,0,0,0,.35-.45,2.07,2.07,0,0,0,.17-.65,8.17,8.17,0,0,0,0-.89h1.23a7.53,7.53,0,0,1-.08,1.11,2.86,2.86,0,0,1-.27.88,2.1,2.1,0,0,1-.52.67,2.61,2.61,0,0,1-.83.47,5.62,5.62,0,0,1-1.19.27,12.59,12.59,0,0,1-1.61.09h-2.87a11.24,11.24,0,0,1-1.9-.14,4.2,4.2,0,0,1-1.27-.42,2.12,2.12,0,0,1-.77-.71,3,3,0,0,1-.4-1,7.58,7.58,0,0,1-.14-1.29c0-.48,0-1,0-1.58s0-1.11,0-1.59a7.63,7.63,0,0,1,.14-1.29,3,3,0,0,1,.4-1,2.13,2.13,0,0,1,.77-.7,4,4,0,0,1,1.27-.42,11.47,11.47,0,0,1,1.9-.14H363a12.26,12.26,0,0,1,1.61.09,5.64,5.64,0,0,1,1.19.26,2.78,2.78,0,0,1,.83.44,2.06,2.06,0,0,1,.52.63,2.59,2.59,0,0,1,.27.82,6.45,6.45,0,0,1,.08,1Zm-40.54,6.76v-9.83h9.82v1h-8.6v3.28h8.19v1h-8.19v3.48h8.6v1Zm-20.9-9.83v1h-4.91v8.8h-1.23v-8.8h-4.91v-1Z" transform="translate(-178.8 -769.78)"/></svg>