<?xml version="1.0" encoding="utf-8"?>
<!-- Generator: Adobe Illustrator 21.1.0, SVG Export Plug-In . SVG Version: 6.00 Build 0)  -->
<svg version="1.1" id="Layer_1" xmlns="http://www.w3.org/2000/svg" xmlns:xlink="http://www.w3.org/1999/xlink" x="0px" y="0px"
	 viewBox="0 0 576.6 178.9" style="enable-background:new 0 0 576.6 178.9;" xml:space="preserve">
<style type="text/css">
	.st0{fill:#57990F;}
	.st1{fill:#808080;}
	.st2{fill:#99CC33;}
	.st3{fill-rule:evenodd;clip-rule:evenodd;fill:#99CC33;}
	.st4{fill:#666666;}
</style>
<g>
	<g>
		<polygon class="st0" points="88.5,132.5 54.2,112.6 54.2,73.1 63.7,78.5 63.7,101.7 83.9,90.1 88.5,92.7 88.5,98.3 68.4,109.9 
			88.5,121.6 		"/>
		<polygon class="st1" points="92.4,85.9 87.7,83.2 87.7,60.1 67.6,71.7 58.1,66.3 92.4,46.4 126.8,66.3 117.3,71.7 97.1,60.1 
			97.1,83.2 		"/>
		<polygon class="st2" points="130.6,73 130.6,107.2 145.2,115.6 145.2,121.2 140.6,123.9 125.9,115.4 96.3,132.5 96.3,121.6 
			121.2,107.2 121.2,78.5 		"/>
		<polygon class="st3" points="111.7,96.3 114.1,97.7 116.4,99 116.4,101.8 116.4,104.5 114.1,105.9 111.7,107.2 109.4,105.9 
			107,104.5 107,101.8 107,99 109.4,97.7 		"/>
	</g>
	<path class="st0" d="M487.7,99.7h-7.8V73.4h11.9l9.4,16.4l9.5-16.4h11.7v26.3h-7.8V80.9l-10.9,18.8h-5.3l-10.8-18.8V99.7z
		 M440.3,73.4h8V89c0,1.8,0.4,3,1.2,3.6c0.8,0.6,2.6,0.9,5.3,0.9h4.6c2.3,0,3.8-0.3,4.5-1c0.8-0.6,1.1-1.8,1.1-3.5V73.4h8v18.1
		c0,3.1-0.8,5.3-2.5,6.6c-1.7,1.3-4.5,1.9-8.7,1.9h-9c-4.8,0-8.1-0.6-9.9-1.9c-1.8-1.2-2.7-3.5-2.7-6.7V73.4z M433.1,99.7h-8V73.4h8
		V99.7z M407.3,73.4c4.2,0,7,0.6,8.5,1.9c1.5,1.2,2.3,3.5,2.3,6.8c0,2.3-0.3,4-1,5.1c-0.7,1.1-1.8,1.8-3.4,2.2
		c1.4,0.3,2.4,0.9,3.1,1.8c0.7,0.8,1,1.9,1,3.3v5.4h-8v-4c0-1-0.2-1.8-0.7-2.1c-0.5-0.4-1.5-0.6-2.9-0.6h-12v6.7h-8.1V73.4H407.3z
		 M407,79.9h-12.8v6.4H407c1.1,0,1.8-0.2,2.3-0.7c0.4-0.5,0.6-1.4,0.6-2.7c0-1-0.2-1.8-0.7-2.3C408.8,80.2,408,79.9,407,79.9z
		 M371.4,99.7h-24.9V73.4h23.7c2.9,0,5.1,0.6,6.6,1.8c1.5,1.2,2.2,3.1,2.2,5.5c0,1.4-0.3,2.5-0.9,3.4c-0.6,0.9-1.6,1.6-2.9,2.1
		c1.7,0.3,2.9,0.9,3.6,1.9c0.8,1,1.1,2.5,1.1,4.4c0,2.5-0.7,4.3-2,5.4C376.5,99.1,374.3,99.7,371.4,99.7z M368.6,83.6
		c0.7,0,1.2-0.2,1.5-0.6c0.4-0.4,0.5-0.9,0.5-1.6c0-0.6-0.2-1.2-0.6-1.6c-0.4-0.4-0.9-0.6-1.5-0.6h-14.1v4.3H368.6z M369.3,93.7
		c0.7,0,1.3-0.2,1.6-0.6c0.4-0.4,0.6-1,0.6-1.8c0-0.7-0.2-1.3-0.6-1.7c-0.4-0.4-0.9-0.6-1.6-0.6h-14.8v4.7H369.3z M339.2,99.7h-8
		V73.4h8V99.7z M308.6,93.3h17.5v6.4h-25.5V73.4h8V93.3z M292.8,99.7h-8V73.4h8V99.7z M244.9,73.4h8V89c0,1.8,0.4,3,1.2,3.6
		c0.8,0.6,2.6,0.9,5.3,0.9h4.6c2.3,0,3.8-0.3,4.5-1c0.8-0.6,1.1-1.8,1.1-3.5V73.4h8v18.1c0,3.1-0.8,5.3-2.5,6.6
		c-1.7,1.3-4.5,1.9-8.7,1.9h-9c-4.8,0-8.1-0.6-9.9-1.9c-1.8-1.2-2.7-3.5-2.7-6.7V73.4z M218.3,93.4h5.1c2.8,0,4.7-0.4,5.7-1.1
		c0.9-0.7,1.4-2,1.4-4v-3.7c0-1.9-0.5-3.3-1.4-4c-0.9-0.7-2.8-1.1-5.7-1.1h-5.1c-2.9,0-4.8,0.4-5.7,1.1c-0.9,0.7-1.4,2.1-1.4,4.1
		v3.7c0,1.9,0.5,3.2,1.4,3.9C213.5,93.1,215.4,93.4,218.3,93.4z M238.2,93.9l4.1,4.1l-5.5,5.5l-4-4l-0.5,0.1
		c-1.4,0.3-3.7,0.4-6.7,0.4h-9.4c-3.1,0-5.3-0.1-6.8-0.4c-1.4-0.3-2.6-0.7-3.5-1.4c-1-0.8-1.7-1.7-2.2-3c-0.4-1.2-0.7-2.8-0.7-4.9
		v-7.2c0-2.2,0.2-4,0.7-5.2c0.4-1.3,1.2-2.3,2.2-3.1c0.9-0.7,2.1-1.1,3.5-1.4c1.5-0.3,3.7-0.4,6.7-0.4h9.5c3,0,5.2,0.1,6.7,0.4
		c1.5,0.3,2.7,0.8,3.5,1.4c1,0.7,1.7,1.8,2.1,3c0.5,1.3,0.7,2.9,0.7,4.9v7.3C238.6,91.6,238.4,92.9,238.2,93.9z M197.1,79.8h-20.7v4
		h19.5v5.5h-19.5v4h21v6.4h-29.1V73.4h28.8V79.8z"/>
	<path class="st4" d="M517.9,115.5c0.7,0,1.3,0,1.7,0.1c0.5,0.1,0.9,0.1,1.2,0.2c0.3,0.1,0.6,0.2,0.8,0.4c0.2,0.2,0.3,0.4,0.5,0.6
		c0.1,0.2,0.2,0.4,0.2,0.7c0,0.3,0,0.5,0,0.8c0,0.3,0,0.6-0.1,0.8c-0.1,0.3-0.1,0.5-0.3,0.7c-0.1,0.2-0.3,0.4-0.6,0.6
		c-0.2,0.2-0.5,0.3-0.9,0.4c-0.4,0.1-0.8,0.2-1.3,0.3c-0.5,0.1-1.1,0.1-1.8,0.1h-1.6c-0.6,0-1.2,0-1.6-0.1c-0.5,0-0.9-0.1-1.2-0.2
		c-0.3-0.1-0.6-0.2-0.8-0.4c-0.2-0.1-0.4-0.3-0.5-0.5c-0.1-0.2-0.2-0.4-0.3-0.7c0-0.3-0.1-0.5-0.1-0.8h1.2c0,0.4,0.1,0.7,0.2,0.9
		c0.1,0.2,0.3,0.4,0.6,0.5c0.3,0.1,0.6,0.2,1,0.2c0.4,0,0.9,0,1.5,0h1.6c0.7,0,1.3,0,1.8-0.1c0.5-0.1,0.9-0.2,1.1-0.3
		c0.3-0.1,0.5-0.3,0.6-0.6c0.1-0.2,0.2-0.5,0.2-0.9c0-0.4,0-0.6-0.1-0.9c-0.1-0.2-0.2-0.4-0.5-0.6c-0.2-0.1-0.6-0.2-1-0.3
		c-0.4-0.1-1-0.1-1.7-0.1h-1.7c-0.8,0-1.4,0-1.9-0.1c-0.5-0.1-1-0.1-1.3-0.2c-0.4-0.1-0.7-0.2-0.9-0.4c-0.2-0.2-0.4-0.3-0.5-0.5
		c-0.1-0.2-0.2-0.4-0.2-0.7c0-0.2,0-0.5,0-0.8c0-0.3,0-0.6,0.1-0.8c0.1-0.3,0.1-0.5,0.3-0.7c0.1-0.2,0.3-0.4,0.6-0.6
		c0.3-0.2,0.6-0.3,1-0.4c0.4-0.1,0.9-0.2,1.4-0.2c0.6-0.1,1.2-0.1,2-0.1h1.2c0.6,0,1.2,0,1.6,0.1c0.5,0,0.9,0.1,1.2,0.2
		c0.3,0.1,0.6,0.2,0.8,0.4c0.2,0.1,0.4,0.3,0.5,0.5c0.1,0.2,0.2,0.4,0.3,0.7c0,0.3,0.1,0.5,0.1,0.8h-1.2c0-0.4-0.1-0.7-0.2-0.9
		c-0.1-0.2-0.3-0.4-0.6-0.5c-0.3-0.1-0.6-0.2-1-0.2c-0.4,0-0.9,0-1.5,0h-1.2c-0.8,0-1.5,0-2,0.1c-0.5,0.1-0.9,0.2-1.3,0.3
		c-0.3,0.1-0.5,0.3-0.6,0.6c-0.1,0.2-0.2,0.5-0.2,0.9c0,0.2,0,0.4,0,0.6c0,0.2,0.1,0.3,0.2,0.4c0.1,0.1,0.2,0.2,0.4,0.3
		c0.2,0.1,0.4,0.2,0.7,0.2c0.3,0.1,0.6,0.1,1,0.1c0.4,0,0.9,0,1.4,0H517.9z M481.4,121v-9.8h9.8v1h-8.6v3.3h8.2v1h-8.2v3.5h8.6v1
		H481.4z M458.9,111.2h1.2v9.8h-1.2V111.2z M436.8,114.2c0-0.5-0.1-0.9-0.2-1.2c-0.1-0.3-0.3-0.5-0.6-0.7c-0.3-0.2-0.6-0.3-1-0.3
		c-0.4,0-0.9-0.1-1.5-0.1h-3.3c-0.5,0-1,0-1.4,0c-0.4,0-0.7,0.1-0.9,0.2c-0.2,0.1-0.4,0.2-0.6,0.4c-0.1,0.2-0.2,0.4-0.3,0.7
		c-0.1,0.3-0.1,0.7-0.1,1.1c0,0.4,0,1,0,1.6c0,0.6,0,1.1,0,1.6c0,0.4,0,0.8,0.1,1.1c0.1,0.3,0.2,0.5,0.3,0.7
		c0.1,0.2,0.3,0.3,0.6,0.4c0.2,0.1,0.5,0.2,0.9,0.2c0.4,0,0.8,0,1.4,0h3.3c0.5,0,0.9,0,1.2,0c0.3,0,0.6-0.1,0.9-0.1
		c0.2-0.1,0.4-0.2,0.6-0.3c0.1-0.1,0.3-0.3,0.3-0.4c0.1-0.2,0.1-0.4,0.2-0.7c0-0.3,0-0.6,0-0.9v-0.6h-4.9v-1h6.2v1.6
		c0,0.4,0,0.8-0.1,1.1c-0.1,0.3-0.1,0.6-0.3,0.9c-0.1,0.3-0.3,0.5-0.5,0.7c-0.2,0.2-0.5,0.3-0.8,0.5c-0.3,0.1-0.7,0.2-1.2,0.3
		c-0.5,0.1-1,0.1-1.6,0.1h-3.3c-0.8,0-1.4,0-1.9-0.1c-0.5-0.1-0.9-0.2-1.3-0.4c-0.3-0.2-0.6-0.4-0.8-0.7c-0.2-0.3-0.3-0.6-0.4-1
		c-0.1-0.4-0.1-0.8-0.1-1.3c0-0.5,0-1,0-1.6c0-0.6,0-1.1,0-1.6c0-0.5,0.1-0.9,0.1-1.3c0.1-0.4,0.2-0.7,0.4-1
		c0.2-0.3,0.4-0.5,0.8-0.7c0.3-0.2,0.8-0.3,1.3-0.4c0.5-0.1,1.1-0.1,1.9-0.1h3.3c0.6,0,1.2,0,1.6,0.1c0.5,0.1,0.9,0.1,1.2,0.3
		c0.3,0.1,0.6,0.3,0.8,0.4c0.2,0.2,0.4,0.4,0.5,0.6c0.1,0.2,0.2,0.5,0.3,0.8c0,0.3,0.1,0.6,0.1,1H436.8z M400.7,120.2
		c0.5,0,1,0,1.4,0c0.4,0,0.7-0.1,0.9-0.2c0.2-0.1,0.4-0.2,0.6-0.4c0.1-0.2,0.2-0.4,0.3-0.7c0.1-0.3,0.1-0.7,0.1-1.1c0-0.4,0-1,0-1.6
		c0-0.6,0-1.1,0-1.6c0-0.4,0-0.8-0.1-1.1c-0.1-0.3-0.2-0.5-0.3-0.7c-0.1-0.2-0.3-0.3-0.6-0.4c-0.2-0.1-0.5-0.2-0.9-0.2
		c-0.4,0-0.8,0-1.4,0H397c-0.5,0-1,0-1.4,0c-0.4,0-0.7,0.1-0.9,0.2c-0.2,0.1-0.4,0.2-0.6,0.4c-0.1,0.2-0.2,0.4-0.3,0.7
		c-0.1,0.3-0.1,0.7-0.1,1.1c0,0.4,0,1,0,1.6c0,0.6,0,1.1,0,1.6c0,0.4,0,0.8,0.1,1.1c0.1,0.3,0.2,0.5,0.3,0.7
		c0.1,0.2,0.3,0.3,0.6,0.4c0.2,0.1,0.5,0.2,0.9,0.2c0.4,0,0.8,0,1.4,0H400.7z M400.7,111c0.8,0,1.4,0,1.9,0.1
		c0.5,0.1,0.9,0.2,1.3,0.4c0.3,0.2,0.6,0.4,0.8,0.7c0.2,0.3,0.3,0.6,0.4,1c0.1,0.4,0.1,0.8,0.1,1.3c0,0.5,0,1,0,1.6
		c0,0.6,0,1.1,0,1.6c0,0.5-0.1,0.9-0.1,1.3c-0.1,0.4-0.2,0.7-0.4,1c-0.2,0.3-0.4,0.5-0.8,0.7c-0.3,0.2-0.8,0.3-1.3,0.4
		c-0.5,0.1-1.1,0.1-1.9,0.1H397c-0.8,0-1.4,0-1.9-0.1c-0.5-0.1-0.9-0.2-1.3-0.4c-0.3-0.2-0.6-0.4-0.8-0.7c-0.2-0.3-0.3-0.6-0.4-1
		c-0.1-0.4-0.1-0.8-0.1-1.3c0-0.5,0-1,0-1.6c0-0.6,0-1.1,0-1.6c0-0.5,0.1-0.9,0.1-1.3c0.1-0.4,0.2-0.7,0.4-1
		c0.2-0.3,0.4-0.5,0.8-0.7c0.3-0.2,0.8-0.3,1.3-0.4c0.5-0.1,1.1-0.1,1.9-0.1H400.7z M363.4,121v-9.8h1.2v8.8h7.8v1H363.4z
		 M338,120.2c0.5,0,1,0,1.4,0c0.4,0,0.7-0.1,0.9-0.2c0.2-0.1,0.4-0.2,0.6-0.4c0.1-0.2,0.2-0.4,0.3-0.7c0.1-0.3,0.1-0.7,0.1-1.1
		c0-0.4,0-1,0-1.6c0-0.6,0-1.1,0-1.6c0-0.4,0-0.8-0.1-1.1c-0.1-0.3-0.2-0.5-0.3-0.7c-0.1-0.2-0.3-0.3-0.6-0.4
		c-0.2-0.1-0.5-0.2-0.9-0.2c-0.4,0-0.8,0-1.4,0h-3.7c-0.5,0-1,0-1.4,0c-0.4,0-0.7,0.1-0.9,0.2c-0.2,0.1-0.4,0.2-0.6,0.4
		c-0.1,0.2-0.2,0.4-0.3,0.7c-0.1,0.3-0.1,0.7-0.1,1.1c0,0.4,0,1,0,1.6c0,0.6,0,1.1,0,1.6c0,0.4,0,0.8,0.1,1.1
		c0.1,0.3,0.2,0.5,0.3,0.7c0.1,0.2,0.3,0.3,0.6,0.4c0.2,0.1,0.6,0.2,0.9,0.2c0.4,0,0.8,0,1.4,0H338z M338,111c0.8,0,1.4,0,1.9,0.1
		c0.5,0.1,0.9,0.2,1.3,0.4c0.3,0.2,0.6,0.4,0.8,0.7c0.2,0.3,0.3,0.6,0.4,1c0.1,0.4,0.1,0.8,0.2,1.3c0,0.5,0,1,0,1.6
		c0,0.6,0,1.1,0,1.6c0,0.5-0.1,0.9-0.2,1.3c-0.1,0.4-0.2,0.7-0.4,1c-0.2,0.3-0.4,0.5-0.8,0.7c-0.3,0.2-0.8,0.3-1.3,0.4
		c-0.5,0.1-1.1,0.1-1.9,0.1h-3.7c-0.8,0-1.4,0-1.9-0.1c-0.5-0.1-0.9-0.2-1.3-0.4c-0.3-0.2-0.6-0.4-0.8-0.7c-0.2-0.3-0.3-0.6-0.4-1
		c-0.1-0.4-0.1-0.8-0.1-1.3c0-0.5,0-1,0-1.6c0-0.6,0-1.1,0-1.6c0-0.5,0.1-0.9,0.1-1.3c0.1-0.4,0.2-0.7,0.4-1
		c0.2-0.3,0.4-0.5,0.8-0.7c0.3-0.2,0.8-0.3,1.3-0.4c0.5-0.1,1.1-0.1,1.9-0.1H338z M297.8,121h-1.2v-9.8h2.2l9,8.6v-8.6h1.2v9.8h-1.6
		l-9.5-8.8V121z M274,111.2h1.2v9.8H274v-4.5h-9v4.5h-1.2v-9.8h1.2v4.3h9V111.2z M241.6,114.2c0-0.5-0.1-0.9-0.2-1.2
		c-0.1-0.3-0.3-0.5-0.5-0.7c-0.3-0.2-0.6-0.3-1-0.3c-0.4,0-0.9-0.1-1.5-0.1h-2.9c-0.5,0-1,0-1.4,0c-0.4,0-0.7,0.1-0.9,0.2
		c-0.2,0.1-0.4,0.2-0.6,0.4c-0.1,0.2-0.2,0.4-0.3,0.7c-0.1,0.3-0.1,0.7-0.1,1.1c0,0.4,0,1,0,1.6c0,0.6,0,1.1,0,1.6
		c0,0.4,0,0.8,0.1,1.1c0.1,0.3,0.2,0.5,0.3,0.7c0.1,0.2,0.3,0.3,0.6,0.4c0.2,0.1,0.5,0.2,0.9,0.2c0.4,0,0.8,0,1.4,0h2.9
		c0.5,0,0.9,0,1.2,0c0.3,0,0.6-0.1,0.9-0.1c0.2-0.1,0.4-0.2,0.6-0.3c0.2-0.1,0.3-0.3,0.4-0.4c0.1-0.2,0.1-0.4,0.2-0.7
		c0-0.3,0-0.6,0-0.9h1.2c0,0.4,0,0.8-0.1,1.1c-0.1,0.3-0.1,0.6-0.3,0.9c-0.1,0.3-0.3,0.5-0.5,0.7c-0.2,0.2-0.5,0.3-0.8,0.5
		c-0.3,0.1-0.7,0.2-1.2,0.3c-0.5,0.1-1,0.1-1.6,0.1h-2.9c-0.8,0-1.4,0-1.9-0.1c-0.5-0.1-0.9-0.2-1.3-0.4c-0.3-0.2-0.6-0.4-0.8-0.7
		c-0.2-0.3-0.3-0.6-0.4-1c-0.1-0.4-0.1-0.8-0.1-1.3c0-0.5,0-1,0-1.6c0-0.6,0-1.1,0-1.6c0-0.5,0.1-0.9,0.1-1.3c0.1-0.4,0.2-0.7,0.4-1
		c0.2-0.3,0.4-0.5,0.8-0.7c0.3-0.2,0.8-0.3,1.3-0.4c0.5-0.1,1.1-0.1,1.9-0.1h2.9c0.6,0,1.2,0,1.6,0.1c0.5,0.1,0.9,0.1,1.2,0.3
		c0.3,0.1,0.6,0.3,0.8,0.4c0.2,0.2,0.4,0.4,0.5,0.6c0.1,0.2,0.2,0.5,0.3,0.8c0,0.3,0.1,0.6,0.1,1H241.6z M201.1,121v-9.8h9.8v1h-8.6
		v3.3h8.2v1h-8.2v3.5h8.6v1H201.1z M180.2,111.2v1h-4.9v8.8h-1.2v-8.8h-4.9v-1H180.2z"/>
</g>
</svg>
