<svg id="Layer_1" data-name="Layer 1" xmlns="http://www.w3.org/2000/svg" viewBox="0 0 216.58 185.81"><defs><style>.cls-1{fill:#333435;}.cls-2{fill:#f49454;}.cls-3{fill:#7dcbb3;}.cls-4{fill:#a4ce4e;}</style></defs><title>Evolving-Landscape-EQT</title><path class="cls-1" d="M-151.59,160.53h-42.26a2.81,2.81,0,0,0-2.8,2.8V314.18h47.86V163.33a2.81,2.81,0,0,0-2.8-2.8Z" transform="translate(216.68 -128.63)"/><polyline class="cls-2" points="62.89 36.91 62.89 180.55 25.04 180.55 25.04 36.91 62.89 36.91"/><line class="cls-1" x1="31.24" y1="43.92" x2="38.95" y2="43.92"/><path class="cls-1" d="M-177.73,175h-7.71a2.5,2.5,0,0,1-2.5-2.5,2.5,2.5,0,0,1,2.5-2.5h7.71a2.5,2.5,0,0,1,2.5,2.5A2.5,2.5,0,0,1-177.73,175Z" transform="translate(216.68 -128.63)"/><line class="cls-1" x1="48.87" y1="43.92" x2="56.58" y2="43.92"/><path class="cls-1" d="M-160.1,175h-7.71a2.5,2.5,0,0,1-2.5-2.5,2.5,2.5,0,0,1,2.5-2.5h7.71a2.5,2.5,0,0,1,2.5,2.5A2.5,2.5,0,0,1-160.1,175Z" transform="translate(216.68 -128.63)"/><line class="cls-1" x1="31.24" y1="53.93" x2="38.95" y2="53.93"/><path class="cls-1" d="M-177.73,185.05h-7.71a2.5,2.5,0,0,1-2.5-2.5,2.5,2.5,0,0,1,2.5-2.5h7.71a2.5,2.5,0,0,1,2.5,2.5A2.5,2.5,0,0,1-177.73,185.05Z" transform="translate(216.68 -128.63)"/><line class="cls-1" x1="48.87" y1="53.93" x2="56.58" y2="53.93"/><path class="cls-1" d="M-160.1,185.05h-7.71a2.5,2.5,0,0,1-2.5-2.5,2.5,2.5,0,0,1,2.5-2.5h7.71a2.5,2.5,0,0,1,2.5,2.5A2.5,2.5,0,0,1-160.1,185.05Z" transform="translate(216.68 -128.63)"/><line class="cls-1" x1="31.24" y1="63.93" x2="38.95" y2="63.93"/><path class="cls-1" d="M-177.73,195.06h-7.71a2.5,2.5,0,0,1-2.5-2.5,2.5,2.5,0,0,1,2.5-2.5h7.71a2.5,2.5,0,0,1,2.5,2.5A2.5,2.5,0,0,1-177.73,195.06Z" transform="translate(216.68 -128.63)"/><line class="cls-1" x1="48.87" y1="63.93" x2="56.58" y2="63.93"/><path class="cls-1" d="M-160.1,195.06h-7.71a2.5,2.5,0,0,1-2.5-2.5,2.5,2.5,0,0,1,2.5-2.5h7.71a2.5,2.5,0,0,1,2.5,2.5A2.5,2.5,0,0,1-160.1,195.06Z" transform="translate(216.68 -128.63)"/><line class="cls-1" x1="31.24" y1="73.93" x2="38.95" y2="73.93"/><path class="cls-1" d="M-177.73,205.06h-7.71a2.5,2.5,0,0,1-2.5-2.5,2.5,2.5,0,0,1,2.5-2.5h7.71a2.5,2.5,0,0,1,2.5,2.5A2.5,2.5,0,0,1-177.73,205.06Z" transform="translate(216.68 -128.63)"/><line class="cls-1" x1="48.87" y1="73.93" x2="56.58" y2="73.93"/><path class="cls-1" d="M-160.1,205.06h-7.71a2.5,2.5,0,0,1-2.5-2.5,2.5,2.5,0,0,1,2.5-2.5h7.71a2.5,2.5,0,0,1,2.5,2.5A2.5,2.5,0,0,1-160.1,205.06Z" transform="translate(216.68 -128.63)"/><line class="cls-1" x1="31.24" y1="83.94" x2="38.95" y2="83.94"/><path class="cls-1" d="M-177.73,215.07h-7.71a2.5,2.5,0,0,1-2.5-2.5,2.5,2.5,0,0,1,2.5-2.5h7.71a2.5,2.5,0,0,1,2.5,2.5A2.5,2.5,0,0,1-177.73,215.07Z" transform="translate(216.68 -128.63)"/><line class="cls-1" x1="48.87" y1="83.94" x2="56.58" y2="83.94"/><path class="cls-1" d="M-160.1,215.07h-7.71a2.5,2.5,0,0,1-2.5-2.5,2.5,2.5,0,0,1,2.5-2.5h7.71a2.5,2.5,0,0,1,2.5,2.5A2.5,2.5,0,0,1-160.1,215.07Z" transform="translate(216.68 -128.63)"/><line class="cls-1" x1="31.24" y1="93.94" x2="38.95" y2="93.94"/><path class="cls-1" d="M-177.73,225.07h-7.71a2.5,2.5,0,0,1-2.5-2.5,2.5,2.5,0,0,1,2.5-2.5h7.71a2.5,2.5,0,0,1,2.5,2.5A2.5,2.5,0,0,1-177.73,225.07Z" transform="translate(216.68 -128.63)"/><line class="cls-1" x1="48.87" y1="93.94" x2="56.58" y2="93.94"/><path class="cls-1" d="M-160.1,225.07h-7.71a2.5,2.5,0,0,1-2.5-2.5,2.5,2.5,0,0,1,2.5-2.5h7.71a2.5,2.5,0,0,1,2.5,2.5A2.5,2.5,0,0,1-160.1,225.07Z" transform="translate(216.68 -128.63)"/><line class="cls-1" x1="31.24" y1="103.95" x2="38.95" y2="103.95"/><path class="cls-1" d="M-177.73,235.08h-7.71a2.5,2.5,0,0,1-2.5-2.5,2.5,2.5,0,0,1,2.5-2.5h7.71a2.5,2.5,0,0,1,2.5,2.5A2.5,2.5,0,0,1-177.73,235.08Z" transform="translate(216.68 -128.63)"/><line class="cls-1" x1="48.87" y1="103.95" x2="56.58" y2="103.95"/><path class="cls-1" d="M-160.1,235.08h-7.71a2.5,2.5,0,0,1-2.5-2.5,2.5,2.5,0,0,1,2.5-2.5h7.71a2.5,2.5,0,0,1,2.5,2.5A2.5,2.5,0,0,1-160.1,235.08Z" transform="translate(216.68 -128.63)"/><line class="cls-1" x1="31.24" y1="113.95" x2="38.95" y2="113.95"/><path class="cls-1" d="M-177.73,245.08h-7.71a2.5,2.5,0,0,1-2.5-2.5,2.5,2.5,0,0,1,2.5-2.5h7.71a2.5,2.5,0,0,1,2.5,2.5A2.5,2.5,0,0,1-177.73,245.08Z" transform="translate(216.68 -128.63)"/><line class="cls-1" x1="48.87" y1="113.95" x2="56.58" y2="113.95"/><path class="cls-1" d="M-160.1,245.08h-7.71a2.5,2.5,0,0,1-2.5-2.5,2.5,2.5,0,0,1,2.5-2.5h7.71a2.5,2.5,0,0,1,2.5,2.5A2.5,2.5,0,0,1-160.1,245.08Z" transform="translate(216.68 -128.63)"/><line class="cls-1" x1="31.24" y1="123.96" x2="38.95" y2="123.96"/><path class="cls-1" d="M-177.73,255.08h-7.71a2.5,2.5,0,0,1-2.5-2.5,2.5,2.5,0,0,1,2.5-2.5h7.71a2.5,2.5,0,0,1,2.5,2.5A2.5,2.5,0,0,1-177.73,255.08Z" transform="translate(216.68 -128.63)"/><line class="cls-1" x1="48.87" y1="123.96" x2="56.58" y2="123.96"/><path class="cls-1" d="M-160.1,255.08h-7.71a2.5,2.5,0,0,1-2.5-2.5,2.5,2.5,0,0,1,2.5-2.5h7.71a2.5,2.5,0,0,1,2.5,2.5A2.5,2.5,0,0,1-160.1,255.08Z" transform="translate(216.68 -128.63)"/><line class="cls-1" x1="31.24" y1="133.96" x2="38.95" y2="133.96"/><path class="cls-1" d="M-177.73,265.09h-7.71a2.5,2.5,0,0,1-2.5-2.5,2.5,2.5,0,0,1,2.5-2.5h7.71a2.5,2.5,0,0,1,2.5,2.5A2.5,2.5,0,0,1-177.73,265.09Z" transform="translate(216.68 -128.63)"/><line class="cls-1" x1="48.87" y1="133.96" x2="56.58" y2="133.96"/><path class="cls-1" d="M-160.1,265.09h-7.71a2.5,2.5,0,0,1-2.5-2.5,2.5,2.5,0,0,1,2.5-2.5h7.71a2.5,2.5,0,0,1,2.5,2.5A2.5,2.5,0,0,1-160.1,265.09Z" transform="translate(216.68 -128.63)"/><line class="cls-1" x1="31.24" y1="143.97" x2="38.95" y2="143.97"/><path class="cls-1" d="M-177.73,275.09h-7.71a2.5,2.5,0,0,1-2.5-2.5,2.5,2.5,0,0,1,2.5-2.5h7.71a2.5,2.5,0,0,1,2.5,2.5A2.5,2.5,0,0,1-177.73,275.09Z" transform="translate(216.68 -128.63)"/><line class="cls-1" x1="48.87" y1="143.97" x2="56.58" y2="143.97"/><path class="cls-1" d="M-160.1,275.09h-7.71a2.5,2.5,0,0,1-2.5-2.5,2.5,2.5,0,0,1,2.5-2.5h7.71a2.5,2.5,0,0,1,2.5,2.5A2.5,2.5,0,0,1-160.1,275.09Z" transform="translate(216.68 -128.63)"/><line class="cls-1" x1="31.24" y1="153.97" x2="38.95" y2="153.97"/><path class="cls-1" d="M-177.73,285.1h-7.71a2.5,2.5,0,0,1-2.5-2.5,2.5,2.5,0,0,1,2.5-2.5h7.71a2.5,2.5,0,0,1,2.5,2.5A2.5,2.5,0,0,1-177.73,285.1Z" transform="translate(216.68 -128.63)"/><line class="cls-1" x1="48.87" y1="153.97" x2="56.58" y2="153.97"/><path class="cls-1" d="M-160.1,285.1h-7.71a2.5,2.5,0,0,1-2.5-2.5,2.5,2.5,0,0,1,2.5-2.5h7.71a2.5,2.5,0,0,1,2.5,2.5A2.5,2.5,0,0,1-160.1,285.1Z" transform="translate(216.68 -128.63)"/><line class="cls-1" x1="31.24" y1="163.97" x2="38.95" y2="163.97"/><path class="cls-1" d="M-177.73,295.1h-7.71a2.5,2.5,0,0,1-2.5-2.5,2.5,2.5,0,0,1,2.5-2.5h7.71a2.5,2.5,0,0,1,2.5,2.5A2.5,2.5,0,0,1-177.73,295.1Z" transform="translate(216.68 -128.63)"/><line class="cls-1" x1="48.87" y1="163.97" x2="56.58" y2="163.97"/><path class="cls-1" d="M-160.1,295.1h-7.71a2.5,2.5,0,0,1-2.5-2.5,2.5,2.5,0,0,1,2.5-2.5h7.71a2.5,2.5,0,0,1,2.5,2.5A2.5,2.5,0,0,1-160.1,295.1Z" transform="translate(216.68 -128.63)"/><line class="cls-1" x1="31.24" y1="173.98" x2="38.95" y2="173.98"/><path class="cls-1" d="M-177.73,305.11h-7.71a2.5,2.5,0,0,1-2.5-2.5,2.5,2.5,0,0,1,2.5-2.5h7.71a2.5,2.5,0,0,1,2.5,2.5A2.5,2.5,0,0,1-177.73,305.11Z" transform="translate(216.68 -128.63)"/><line class="cls-1" x1="48.87" y1="173.98" x2="56.58" y2="173.98"/><path class="cls-1" d="M-160.1,305.11h-7.71a2.5,2.5,0,0,1-2.5-2.5,2.5,2.5,0,0,1,2.5-2.5h7.71a2.5,2.5,0,0,1,2.5,2.5A2.5,2.5,0,0,1-160.1,305.11Z" transform="translate(216.68 -128.63)"/><line class="cls-1" x1="2.5" y1="183.31" x2="214.08" y2="183.31"/><path class="cls-1" d="M-2.6,314.44H-214.18a2.5,2.5,0,0,1-2.5-2.5,2.5,2.5,0,0,1,2.5-2.5H-2.6a2.5,2.5,0,0,1,2.5,2.5A2.5,2.5,0,0,1-2.6,314.44Z" transform="translate(216.68 -128.63)"/><path class="cls-1" d="M-22.19,151.58H-82.64a2.81,2.81,0,0,0-2.8,2.8V314.18h66V154.38a2.81,2.81,0,0,0-2.8-2.8Z" transform="translate(216.68 -128.63)"/><polyline class="cls-2" points="192.29 27.95 192.29 180.55 136.24 180.55 136.24 27.95 192.29 27.95"/><line class="cls-1" x1="142.62" y1="35.96" x2="185.23" y2="35.96"/><path class="cls-1" d="M-31.45,167.09H-74.06a2.5,2.5,0,0,1-2.5-2.5,2.5,2.5,0,0,1,2.5-2.5h42.61a2.5,2.5,0,0,1,2.5,2.5A2.5,2.5,0,0,1-31.45,167.09Z" transform="translate(216.68 -128.63)"/><line class="cls-1" x1="142.62" y1="45.82" x2="185.23" y2="45.82"/><path class="cls-1" d="M-31.45,176.95H-74.06a2.5,2.5,0,0,1-2.5-2.5,2.5,2.5,0,0,1,2.5-2.5h42.61a2.5,2.5,0,0,1,2.5,2.5A2.5,2.5,0,0,1-31.45,176.95Z" transform="translate(216.68 -128.63)"/><line class="cls-1" x1="142.62" y1="55.68" x2="185.23" y2="55.68"/><path class="cls-1" d="M-31.45,186.81H-74.06a2.5,2.5,0,0,1-2.5-2.5,2.5,2.5,0,0,1,2.5-2.5h42.61a2.5,2.5,0,0,1,2.5,2.5A2.5,2.5,0,0,1-31.45,186.81Z" transform="translate(216.68 -128.63)"/><line class="cls-1" x1="142.62" y1="65.54" x2="185.23" y2="65.54"/><path class="cls-1" d="M-31.45,196.67H-74.06a2.5,2.5,0,0,1-2.5-2.5,2.5,2.5,0,0,1,2.5-2.5h42.61a2.5,2.5,0,0,1,2.5,2.5A2.5,2.5,0,0,1-31.45,196.67Z" transform="translate(216.68 -128.63)"/><line class="cls-1" x1="142.62" y1="75.4" x2="185.23" y2="75.4"/><path class="cls-1" d="M-31.45,206.52H-74.06a2.5,2.5,0,0,1-2.5-2.5,2.5,2.5,0,0,1,2.5-2.5h42.61A2.5,2.5,0,0,1-29,204,2.5,2.5,0,0,1-31.45,206.52Z" transform="translate(216.68 -128.63)"/><line class="cls-1" x1="142.62" y1="85.25" x2="185.23" y2="85.25"/><path class="cls-1" d="M-31.45,216.38H-74.06a2.5,2.5,0,0,1-2.5-2.5,2.5,2.5,0,0,1,2.5-2.5h42.61a2.5,2.5,0,0,1,2.5,2.5A2.5,2.5,0,0,1-31.45,216.38Z" transform="translate(216.68 -128.63)"/><line class="cls-1" x1="142.62" y1="95.11" x2="185.23" y2="95.11"/><path class="cls-1" d="M-31.45,226.24H-74.06a2.5,2.5,0,0,1-2.5-2.5,2.5,2.5,0,0,1,2.5-2.5h42.61a2.5,2.5,0,0,1,2.5,2.5A2.5,2.5,0,0,1-31.45,226.24Z" transform="translate(216.68 -128.63)"/><line class="cls-1" x1="142.62" y1="104.97" x2="185.23" y2="104.97"/><path class="cls-1" d="M-31.45,236.1H-74.06a2.5,2.5,0,0,1-2.5-2.5,2.5,2.5,0,0,1,2.5-2.5h42.61a2.5,2.5,0,0,1,2.5,2.5A2.5,2.5,0,0,1-31.45,236.1Z" transform="translate(216.68 -128.63)"/><line class="cls-1" x1="142.62" y1="114.83" x2="185.23" y2="114.83"/><path class="cls-1" d="M-31.45,246H-74.06a2.5,2.5,0,0,1-2.5-2.5,2.5,2.5,0,0,1,2.5-2.5h42.61a2.5,2.5,0,0,1,2.5,2.5A2.5,2.5,0,0,1-31.45,246Z" transform="translate(216.68 -128.63)"/><line class="cls-1" x1="142.62" y1="124.69" x2="185.23" y2="124.69"/><path class="cls-1" d="M-31.45,255.82H-74.06a2.5,2.5,0,0,1-2.5-2.5,2.5,2.5,0,0,1,2.5-2.5h42.61a2.5,2.5,0,0,1,2.5,2.5A2.5,2.5,0,0,1-31.45,255.82Z" transform="translate(216.68 -128.63)"/><line class="cls-1" x1="142.62" y1="134.55" x2="185.23" y2="134.55"/><path class="cls-1" d="M-31.45,265.67H-74.06a2.5,2.5,0,0,1-2.5-2.5,2.5,2.5,0,0,1,2.5-2.5h42.61a2.5,2.5,0,0,1,2.5,2.5A2.5,2.5,0,0,1-31.45,265.67Z" transform="translate(216.68 -128.63)"/><line class="cls-1" x1="142.62" y1="144.4" x2="185.23" y2="144.4"/><path class="cls-1" d="M-31.45,275.53H-74.06a2.5,2.5,0,0,1-2.5-2.5,2.5,2.5,0,0,1,2.5-2.5h42.61A2.5,2.5,0,0,1-29,273,2.5,2.5,0,0,1-31.45,275.53Z" transform="translate(216.68 -128.63)"/><line class="cls-1" x1="142.62" y1="154.26" x2="185.23" y2="154.26"/><path class="cls-1" d="M-31.45,285.39H-74.06a2.5,2.5,0,0,1-2.5-2.5,2.5,2.5,0,0,1,2.5-2.5h42.61a2.5,2.5,0,0,1,2.5,2.5A2.5,2.5,0,0,1-31.45,285.39Z" transform="translate(216.68 -128.63)"/><line class="cls-1" x1="142.62" y1="164.12" x2="185.23" y2="164.12"/><path class="cls-1" d="M-31.45,295.25H-74.06a2.5,2.5,0,0,1-2.5-2.5,2.5,2.5,0,0,1,2.5-2.5h42.61a2.5,2.5,0,0,1,2.5,2.5A2.5,2.5,0,0,1-31.45,295.25Z" transform="translate(216.68 -128.63)"/><line class="cls-1" x1="142.62" y1="173.98" x2="185.23" y2="173.98"/><path class="cls-1" d="M-31.45,305.11H-74.06a2.5,2.5,0,0,1-2.5-2.5,2.5,2.5,0,0,1,2.5-2.5h42.61a2.5,2.5,0,0,1,2.5,2.5A2.5,2.5,0,0,1-31.45,305.11Z" transform="translate(216.68 -128.63)"/><path class="cls-1" d="M-72,128.63h-60.45a2.81,2.81,0,0,0-2.8,2.8V314.18h66V131.43a2.81,2.81,0,0,0-2.8-2.8Z" transform="translate(216.68 -128.63)"/><polyline class="cls-3" points="142.47 5 142.47 180.55 86.42 180.55 86.42 5 142.47 5"/><path class="cls-1" d="M-82.61,144v4.27h-38.7V144h38.7m3-5h-44.7a2,2,0,0,0-2,2v10.27a2,2,0,0,0,2,2h44.7a2,2,0,0,0,2-2V141a2,2,0,0,0-2-2Z" transform="translate(216.68 -128.63)"/><path class="cls-1" d="M-82.61,163v4.27h-38.7V163h38.7m3-5h-44.7a2,2,0,0,0-2,2v10.27a2,2,0,0,0,2,2h44.7a2,2,0,0,0,2-2V160a2,2,0,0,0-2-2Z" transform="translate(216.68 -128.63)"/><path class="cls-1" d="M-82.61,182v4.27h-38.7V182h38.7m3-5h-44.7a2,2,0,0,0-2,2v10.27a2,2,0,0,0,2,2h44.7a2,2,0,0,0,2-2V179a2,2,0,0,0-2-2Z" transform="translate(216.68 -128.63)"/><path class="cls-1" d="M-82.61,201v4.27h-38.7V201h38.7m3-5h-44.7a2,2,0,0,0-2,2v10.27a2,2,0,0,0,2,2h44.7a2,2,0,0,0,2-2V198a2,2,0,0,0-2-2Z" transform="translate(216.68 -128.63)"/><path class="cls-1" d="M-82.61,219.94v4.27h-38.7v-4.27h38.7m3-5h-44.7a2,2,0,0,0-2,2v10.27a2,2,0,0,0,2,2h44.7a2,2,0,0,0,2-2V216.94a2,2,0,0,0-2-2Z" transform="translate(216.68 -128.63)"/><path class="cls-1" d="M-82.61,238.93v4.27h-38.7v-4.27h38.7m3-5h-44.7a2,2,0,0,0-2,2v10.27a2,2,0,0,0,2,2h44.7a2,2,0,0,0,2-2V235.93a2,2,0,0,0-2-2Z" transform="translate(216.68 -128.63)"/><path class="cls-1" d="M-82.61,257.92v4.27h-38.7v-4.27h38.7m3-5h-44.7a2,2,0,0,0-2,2V265.2a2,2,0,0,0,2,2h44.7a2,2,0,0,0,2-2V254.92a2,2,0,0,0-2-2Z" transform="translate(216.68 -128.63)"/><path class="cls-1" d="M-82.61,276.91v4.27h-38.7v-4.27h38.7m3-5h-44.7a2,2,0,0,0-2,2v10.27a2,2,0,0,0,2,2h44.7a2,2,0,0,0,2-2V273.91a2,2,0,0,0-2-2Z" transform="translate(216.68 -128.63)"/><path class="cls-1" d="M-82.61,295.9v4.27h-38.7V295.9h38.7m3-5h-44.7a2,2,0,0,0-2,2v10.27a2,2,0,0,0,2,2h44.7a2,2,0,0,0,2-2V292.9a2,2,0,0,0-2-2Z" transform="translate(216.68 -128.63)"/><path class="cls-1" d="M-122.67,205.31H-168a2.81,2.81,0,0,0-2.8,2.8V314.18h50.94V208.11a2.81,2.81,0,0,0-2.8-2.8Z" transform="translate(216.68 -128.63)"/><polyline class="cls-4" points="91.82 81.68 91.82 180.55 50.88 180.55 50.88 81.68 91.82 81.68"/><path class="cls-1" d="M-133.26,295.4v4.27h-4.27V295.4h4.27m3-5h-10.27a2,2,0,0,0-2,2v10.27a2,2,0,0,0,2,2h10.27a2,2,0,0,0,2-2V292.4a2,2,0,0,0-2-2Z" transform="translate(216.68 -128.63)"/><path class="cls-1" d="M-133.26,276.58v4.27h-4.27v-4.27h4.27m3-5h-10.27a2,2,0,0,0-2,2v10.27a2,2,0,0,0,2,2h10.27a2,2,0,0,0,2-2V273.58a2,2,0,0,0-2-2Z" transform="translate(216.68 -128.63)"/><path class="cls-1" d="M-133.26,257.76V262h-4.27v-4.27h4.27m3-5h-10.27a2,2,0,0,0-2,2V265a2,2,0,0,0,2,2h10.27a2,2,0,0,0,2-2V254.76a2,2,0,0,0-2-2Z" transform="translate(216.68 -128.63)"/><path class="cls-1" d="M-133.26,238.94v4.27h-4.27v-4.27h4.27m3-5h-10.27a2,2,0,0,0-2,2v10.27a2,2,0,0,0,2,2h10.27a2,2,0,0,0,2-2V235.94a2,2,0,0,0-2-2Z" transform="translate(216.68 -128.63)"/><path class="cls-1" d="M-133.26,220.12v4.27h-4.27v-4.27h4.27m3-5h-10.27a2,2,0,0,0-2,2v10.27a2,2,0,0,0,2,2h10.27a2,2,0,0,0,2-2V217.12a2,2,0,0,0-2-2Z" transform="translate(216.68 -128.63)"/><path class="cls-1" d="M-151.45,295.4v4.27h-4.27V295.4h4.27m3-5h-10.27a2,2,0,0,0-2,2v10.27a2,2,0,0,0,2,2h10.27a2,2,0,0,0,2-2V292.4a2,2,0,0,0-2-2Z" transform="translate(216.68 -128.63)"/><path class="cls-1" d="M-151.45,276.58v4.27h-4.27v-4.27h4.27m3-5h-10.27a2,2,0,0,0-2,2v10.27a2,2,0,0,0,2,2h10.27a2,2,0,0,0,2-2V273.58a2,2,0,0,0-2-2Z" transform="translate(216.68 -128.63)"/><path class="cls-1" d="M-151.45,257.76V262h-4.27v-4.27h4.27m3-5h-10.27a2,2,0,0,0-2,2V265a2,2,0,0,0,2,2h10.27a2,2,0,0,0,2-2V254.76a2,2,0,0,0-2-2Z" transform="translate(216.68 -128.63)"/><path class="cls-1" d="M-151.45,238.94v4.27h-4.27v-4.27h4.27m3-5h-10.27a2,2,0,0,0-2,2v10.27a2,2,0,0,0,2,2h10.27a2,2,0,0,0,2-2V235.94a2,2,0,0,0-2-2Z" transform="translate(216.68 -128.63)"/><path class="cls-1" d="M-151.45,220.12v4.27h-4.27v-4.27h4.27m3-5h-10.27a2,2,0,0,0-2,2v10.27a2,2,0,0,0,2,2h10.27a2,2,0,0,0,2-2V217.12a2,2,0,0,0-2-2Z" transform="translate(216.68 -128.63)"/></svg>