<?xml version="1.0" encoding="utf-8"?>
<!-- Generator: Adobe Illustrator 21.1.0, SVG Export Plug-In . SVG Version: 6.00 Build 0)  -->
<svg version="1.1" id="Layer_1" xmlns="http://www.w3.org/2000/svg" xmlns:xlink="http://www.w3.org/1999/xlink" x="0px" y="0px"
	 viewBox="0 0 296.2 388" style="enable-background:new 0 0 296.2 388;" xml:space="preserve">
<style type="text/css">
	.st0{fill:#333435;}
	.st1{fill:#A4CE4E;}
</style>
<title>Talent Icon</title>
<g>
	<path class="st0" d="M66.9,388h-0.2c-2.2-0.1-3.9-1.9-3.8-4.1c2.6-66-8.3-82.3-9-83.3c-0.1-0.1-0.2-0.3-0.3-0.4
		c-0.3-0.4-6.6-10.2-38-70c-17.1-32.6-17-64.5-14-85.6c3.4-22.8,10.7-37.7,11-38.4c1-2,3.5-2.7,5.4-1.7c1.9,1,2.6,3.3,1.8,5.2l0,0
		c-0.3,0.6-27.9,58.1,2.9,116.7c29.2,55.6,36.5,67.6,37.5,69.1c2.2,2.8,13.4,20.5,10.7,88.6C70.8,386.3,69,388,66.9,388z"/>
	<path class="st0" d="M206.6,388h-33.4c-2.2,0-4-1.8-4-4s1.8-4,4-4h29.3v-81.3c0-2.2,1.8-4,4-4h43c3.9,0,6.9-1,8.8-3.1
		c3.1-3.3,2.9-8.3,2.9-8.3s0-0.2,0-0.3v-49.2c0-2.2,1.8-4,4-4h20.3l-30.8-59.3c-0.3-0.6-0.5-1.2-0.5-1.9c0.5-37.4-9.9-58.6-10-58.8
		c-1-2-0.2-4.4,1.8-5.4c2-1,4.4-0.2,5.4,1.8c0.5,0.9,11.2,22.8,10.9,61.5l33.4,64.3c1,2,0.2,4.4-1.7,5.4c-0.6,0.3-1.2,0.4-1.8,0.4
		h-22.9v45.2c0,1.2,0.1,8.7-5,14.1c-3.5,3.7-8.4,5.6-14.7,5.6h-39V384C210.6,386.2,208.8,388,206.6,388z"/>
	<path class="st0" d="M112.1,33.4c-1.6,0-3.1-1-3.7-2.5L98.5,5.5c-0.8-2.1,0.2-4.4,2.3-5.2s4.4,0.2,5.2,2.3l9.9,25.4
		c0.8,2.1-0.2,4.4-2.3,5.2C113.1,33.3,112.6,33.4,112.1,33.4z"/>
	<path class="st0" d="M72.3,52.8c-1.1,0-2.2-0.5-3-1.3L51.9,32.1c-1.5-1.7-1.3-4.2,0.3-5.7c1.7-1.5,4.2-1.3,5.7,0.3l17.3,19.4
		c1.5,1.6,1.3,4.2-0.3,5.6C74.2,52.4,73.3,52.8,72.3,52.8L72.3,52.8z"/>
	<path class="st0" d="M50.5,93.6c-0.5,0-1-0.1-1.5-0.3l-24.9-9.9c-2.1-0.8-3-3.2-2.2-5.2c0.8-2.1,3.2-3,5.2-2.2L52,85.9
		c2,0.8,3,3.2,2.2,5.2C53.6,92.6,52.1,93.6,50.5,93.6L50.5,93.6z"/>
	<path class="st0" d="M25.6,145.3c-2.2,0-4-1.8-4-4c0-1.7,1.1-3.2,2.7-3.8l24.9-9c2.1-0.7,4.4,0.3,5.1,2.4c0.7,2.1-0.3,4.4-2.4,5.1
		l0,0l-24.9,9C26.5,145.2,26.1,145.3,25.6,145.3z"/>
	<path class="st0" d="M50.5,193.5c-2.2,0-4-1.8-4-4c0-1.1,0.5-2.2,1.4-3l21.9-18.9c1.7-1.4,4.2-1.1,5.6,0.6c1.3,1.6,1.2,4.1-0.4,5.5
		l-21.9,18.9C52.3,193.2,51.4,193.5,50.5,193.5z"/>
	<path class="st0" d="M151.3,33.4c-2.2,0-4-1.8-4-4c0-0.5,0.1-1,0.3-1.5l9.9-25.4c0.8-2.1,3.1-3.1,5.2-2.3s3.1,3.1,2.3,5.2L155,30.9
		C154.4,32.4,152.9,33.4,151.3,33.4z"/>
	<path class="st0" d="M191.1,52.8c-2.2,0-4-1.8-4-4c0-1,0.4-2,1-2.7l17.4-19.4c1.5-1.7,4-1.8,5.7-0.3c1.7,1.5,1.8,4,0.3,5.7
		l-17.4,19.4C193.3,52.3,192.2,52.8,191.1,52.8z"/>
	<path class="st0" d="M213,93.6c-2.2,0-4-1.8-4-4c0-1.6,1-3.1,2.5-3.7l24.9-9.9c2.1-0.8,4.4,0.2,5.2,2.2c0.8,2.1-0.2,4.4-2.2,5.2
		l-24.9,9.9C214,93.5,213.5,93.6,213,93.6z"/>
	<path class="st0" d="M237.8,145.3c-0.5,0-0.9-0.1-1.4-0.2l-24.9-9c-2.1-0.7-3.2-3-2.4-5.1s3-3.2,5.1-2.4l24.9,9
		c2.1,0.8,3.1,3,2.4,5.1C241,144.2,239.5,145.3,237.8,145.3L237.8,145.3z"/>
	<path class="st0" d="M213,193.5c-1,0-1.9-0.4-2.6-1l-21.9-18.9c-1.7-1.4-2-3.9-0.6-5.6c1.4-1.7,3.9-2,5.6-0.6
		c0.1,0,0.1,0.1,0.2,0.1l21.9,18.9c1.7,1.5,1.8,4,0.4,5.6C215.2,193,214.1,193.5,213,193.5L213,193.5z"/>
	<path class="st1" d="M185.3,148.7c14.4-22.9,15.4-35.3,14.7-47.7c-3.6-57.1-68.2-54.2-68.2-54.2S67.2,43.9,63.6,101
		c-0.8,12.5,0.3,24.9,14.7,47.7s27.4,52.2,26.9,68.6v24.4c0,0-0.7,10.6,10.6,10.6h32.1c11.3,0,10.6-10.6,10.6-10.6v-24.4
		C157.9,201,170.8,171.6,185.3,148.7z"/>
	<path class="st0" d="M147.8,256.3h-32.1c-5.8,0-9.1-2.3-10.9-4.2c-2.5-2.9-3.8-6.6-3.7-10.5v-24.3c0,0,0-0.1,0-0.1
		c0.4-13.9-10.4-41.2-26.2-66.4c-15.5-24.5-16.1-37.7-15.3-50.1c2-31.6,21.7-45.7,38-52c10.9-4.1,22.5-6.1,34.2-6
		c11.7-0.1,23.3,1.9,34.2,6c16.2,6.3,36,20.4,38,52c0.8,12.4,0.2,25.6-15.3,50.1l0,0c-15.9,25.2-26.7,52.5-26.2,66.4
		c0,0,0,0.1,0,0.1v24.3c0.2,3.8-1.2,7.6-3.7,10.5C156.9,254,153.6,256.3,147.8,256.3z M109.2,242c0,1.7,0.5,3.3,1.6,4.6
		c1,1.1,2.7,1.6,5,1.6h32.1c2.3,0,4-0.6,5-1.6c1.1-1.3,1.6-3,1.6-4.7c0-0.1,0-0.2,0-0.2v-24.3c-0.5-18,13.4-48.5,27.5-70.8
		c14.2-22.5,14.8-34.3,14.1-45.4c-1.4-22-12.4-37.1-32.9-45c-9.9-3.7-20.5-5.5-31.1-5.4h-0.4c-10.7-0.1-21.3,1.7-31.3,5.5
		c-20.3,7.9-31.3,23-32.6,45c-0.7,11.1-0.1,22.8,14.1,45.4c14,22.3,28,52.8,27.5,70.8v24.3C109.2,241.9,109.2,242,109.2,242
		L109.2,242z M185.3,148.7L185.3,148.7z"/>
	<path class="st0" d="M175.8,232.3h-88c-2.2,0-4-1.8-4-4s1.8-4,4-4h88c2.2,0,4,1.8,4,4S178,232.3,175.8,232.3z"/>
</g>
</svg>
